<svg width="645" height="570" viewBox="0 0 645 570" fill="none" xmlns="http://www.w3.org/2000/svg">
<path d="M592.995 455.901H50.6545C46.2799 455.896 42.086 454.156 38.9927 451.063C35.8994 447.97 34.1594 443.776 34.1545 439.401V133.602H609.495V439.401C609.49 443.776 607.75 447.97 604.656 451.063C601.563 454.156 597.369 455.896 592.995 455.901V455.901Z" fill="#E6E6E6"/>
<path d="M571.412 424.318H72.2371C69.9835 424.315 67.823 423.419 66.2295 421.825C64.636 420.232 63.7396 418.071 63.7371 415.818V173.684C63.7396 171.43 64.636 169.27 66.2295 167.676C67.823 166.083 69.9835 165.187 72.2371 165.184H571.412C573.665 165.187 575.826 166.083 577.419 167.676C579.013 169.27 579.909 171.43 579.912 173.684V415.818C579.909 418.071 579.013 420.232 577.419 421.826C575.826 423.419 573.665 424.315 571.412 424.318V424.318Z" fill="white"/>
<path d="M610.649 144.748H33V131.5C33.0049 127.125 34.7449 122.931 37.8382 119.838C40.9315 116.745 45.1254 115.005 49.5 115H594.149C598.524 115.005 602.718 116.745 605.811 119.838C608.904 122.931 610.644 127.125 610.649 131.5V144.748Z" fill="#5A67D8" fill-opacity="0.9"/>
<path d="M190.311 331.609H101.466C99.2123 331.606 97.0517 330.71 95.4582 329.116C93.8647 327.523 92.9684 325.362 92.9658 323.109V264.702C92.9684 262.449 93.8647 260.288 95.4582 258.695C97.0517 257.101 99.2123 256.205 101.466 256.202H190.311C192.565 256.205 194.725 257.101 196.319 258.695C197.912 260.288 198.809 262.449 198.811 264.702V323.109C198.809 325.362 197.912 327.523 196.319 329.117C194.725 330.71 192.565 331.606 190.311 331.609V331.609Z" fill="#E6E6E6"/>
<path d="M545.955 265.658H265.24C263.987 265.658 262.784 265.16 261.897 264.273C261.011 263.386 260.513 262.184 260.513 260.93C260.513 259.676 261.011 258.474 261.897 257.587C262.784 256.7 263.987 256.202 265.24 256.202H545.955C547.209 256.202 548.412 256.7 549.298 257.587C550.185 258.474 550.683 259.676 550.683 260.93C550.683 262.184 550.185 263.386 549.298 264.273C548.412 265.16 547.209 265.658 545.955 265.658V265.658Z" fill="#E6E6E6"/>
<path d="M545.955 299.479H265.24C263.987 299.479 262.784 298.98 261.898 298.094C261.011 297.207 260.513 296.005 260.513 294.751C260.513 293.497 261.011 292.295 261.898 291.408C262.784 290.522 263.987 290.023 265.24 290.023H545.955C547.209 290.023 548.412 290.522 549.298 291.408C550.185 292.295 550.683 293.497 550.683 294.751C550.683 296.005 550.185 297.207 549.298 298.094C548.412 298.98 547.209 299.479 545.955 299.479V299.479Z" fill="#E6E6E6"/>
<path d="M545.955 333.3H265.24C263.987 333.3 262.784 332.802 261.897 331.915C261.011 331.028 260.513 329.826 260.513 328.572C260.513 327.318 261.011 326.116 261.897 325.229C262.784 324.342 263.987 323.844 265.24 323.844H545.955C547.209 323.844 548.412 324.342 549.298 325.229C550.185 326.116 550.683 327.318 550.683 328.572C550.683 329.826 550.185 331.028 549.298 331.915C548.412 332.802 547.209 333.3 545.955 333.3V333.3Z" fill="#E6E6E6"/>
</svg>
